# xmcd
#
# Track frame offsets:
#	150
#	16538
#	33749
#	51129
#	66356
#	83949
#	101651
#	118196
#	139165
#	153091
#	170723
#
# Disc length: 2528 seconds
#
# Revision: 3
# Processed by: cddbd v1.5.2PL0 Copyright (c) Steve Scherf et al.
# Submitted via: EasyCDDAExtractor 15.3.0.1
#
DISCID=9109de0b
DTITLE=Milly Quezada - Aqui Estoy Yo
DYEAR=2011
DGENRE=Latin
TTITLE0=No Me Interesa
TTITLE1=Contigo El Amor
TTITLE2=Llorare Por El
TTITLE3=Toma Mi Vida (Featuring Juan Luis Guerra)
TTITLE4=Lo Que Mas
TTITLE5=De Isla A Isla (Featuring Victor Manuelle)
TTITLE6=Te Quiero Un Monton
TTITLE7=Donde Estara (Featuring Tito Nieves)
TTITLE8=Te Busco
TTITLE9=A Flor De Piel
TTITLE10=Llorare Por El (Version Merengue) (Bonus Track)
EXTD=
EXTT0=
EXTT1=
EXTT2=
EXTT3=
EXTT4=
EXTT5=
EXTT6=
EXTT7=
EXTT8=
EXTT9=
EXTT10=
PLAYORDER=
